<?xml version="1.0" encoding="UTF-8" standalone="no"?>
<!-- Created with Inkscape (http://www.inkscape.org/) -->

<svg
   width="192.0px"
   height="192.0px"
   viewBox="0 0 192.0 192.0"
   version="1.1"
   id="SVGRoot"
   sodipodi:docname="favicon.svg"
   inkscape:export-filename="android-chrome-512x512.png"
   inkscape:export-xdpi="256"
   inkscape:export-ydpi="256"
   inkscape:version="1.2.2 (732a01da63, 2022-12-09)"
   xmlns:inkscape="http://www.inkscape.org/namespaces/inkscape"
   xmlns:sodipodi="http://sodipodi.sourceforge.net/DTD/sodipodi-0.dtd"
   xmlns="http://www.w3.org/2000/svg"
   xmlns:svg="http://www.w3.org/2000/svg">
  <sodipodi:namedview
     id="namedview2574"
     pagecolor="#ffffff"
     bordercolor="#000000"
     borderopacity="0.25"
     inkscape:showpageshadow="2"
     inkscape:pageopacity="0.0"
     inkscape:pagecheckerboard="0"
     inkscape:deskcolor="#d1d1d1"
     inkscape:document-units="px"
     showgrid="true"
     inkscape:zoom="1.4324916"
     inkscape:cx="89.703843"
     inkscape:cy="128.79657"
     inkscape:window-width="1920"
     inkscape:window-height="991"
     inkscape:window-x="-9"
     inkscape:window-y="-9"
     inkscape:window-maximized="1"
     inkscape:current-layer="layer1">
    <inkscape:grid
       type="xygrid"
       id="grid2580" />
  </sodipodi:namedview>
  <defs
     id="defs2569">
    <clipPath
       clipPathUnits="userSpaceOnUse"
       id="clipPath2516">
      <path
         d="M 0,1080 H 1920 V 0 H 0 Z"
         id="path2514" />
    </clipPath>
  </defs>
  <g
     inkscape:label="Layer 1"
     inkscape:groupmode="layer"
     id="layer1">
    <g
       id="g2510"
       transform="matrix(0.62740449,0,0,-0.6320581,-507.21673,438.50846)">
      <g
         id="g2512"
         clip-path="url(#clipPath2516)">
        <g
           id="g2518"
           transform="translate(1109.998,540.002)">
          <path
             d="m 0,0 c 0,-82.843 -67.152,-150.002 -149.994,-150.002 -82.843,0 -150.002,67.159 -150.002,150.002 0,82.839 67.159,149.998 150.002,149.998 C -67.152,149.998 0,82.839 0,0"
             style="fill:#005587;fill-opacity:1;fill-rule:nonzero;stroke:none"
             id="path2520" />
        </g>
        <g
           id="g2522"
           transform="translate(931.8918,596.8535)">
          <path
             d="m 0,0 c 0,2.962 0.75,5.435 2.234,7.423 1.478,1.966 3.374,3.2 5.674,3.692 l 7.673,1.489 c 2.308,0.158 3.469,1.081 3.469,2.726 0,1.475 -1.323,2.224 -3.947,2.224 h -58.148 c -2.617,0 -3.932,-0.749 -3.932,-2.224 0,-1.645 1.146,-2.568 3.468,-2.726 l 7.652,-1.489 c 2.476,-0.492 4.416,-1.693 5.827,-3.582 1.382,-1.896 2.088,-4.322 2.088,-7.295 l 0.839,-73.43 c 9.401,2.836 18.562,7.051 27.103,12.419 z"
             style="fill:#ffffff;fill-opacity:1;fill-rule:nonzero;stroke:none"
             id="path2524" />
        </g>
        <g
           id="g2526"
           transform="translate(996.1848,546.8857)">
          <path
             d="m 0,0 v -37.329 c 0,-11.377 -3.124,-19.861 -9.385,-25.477 -6.277,-5.6 -13.596,-8.396 -22.019,-8.396 -9.231,0 -17.014,3.252 -23.364,9.764 -6.35,6.511 -9.525,15.371 -9.525,26.582 v 6.871 c -9.086,-1.842 -18.534,-2.772 -27.045,-0.338 l 0.095,-8.264 c 0,-15.827 5.071,-27.817 15.206,-35.986 10.142,-8.162 24.694,-12.237 43.641,-12.237 16.977,0 29.956,4.075 38.959,12.237 8.981,8.169 13.464,20.159 13.464,35.986 l 1.236,61.69 C 15.315,15.729 8.163,7.165 0,0"
             style="fill:#ffffff;fill-opacity:1;fill-rule:nonzero;stroke:none"
             id="path2528" />
        </g>
        <g
           id="g2530"
           transform="translate(1030.0234,613.9346)">
          <path
             d="m 0,0 c -14.537,0.007 -29.075,0.016 -43.606,0.017 -0.094,-1.286 -0.217,-2.566 -0.367,-3.84 -3.829,-32.658 -25.861,-61.657 -54.159,-78.667 -6.767,-4.068 -13.892,-7.45 -21.213,-10.033 6.812,-0.923 14.127,-0.074 21.213,1.393 5.563,1.151 10.986,2.68 15.912,4.03 14.111,3.885 28.046,9.121 39.746,18.136 3.006,2.317 5.878,4.819 8.635,7.457 8.417,8.054 15.647,17.494 21.428,27.753 5.094,9.04 9.069,18.704 11.769,28.581 0.117,0.429 0.217,0.86 0.33,1.288 0.338,1.292 0.672,2.586 0.966,3.884 -0.218,0 -0.436,0 -0.654,0.001"
             style="fill:#ab192d;fill-opacity:1;fill-rule:nonzero;stroke:none"
             id="path2532" />
        </g>
      </g>
    </g>
  </g>
</svg>
