<?xml version="1.0" encoding="UTF-8" standalone="no"?>
<!-- Generator: Adobe Illustrator 16.0.0, SVG Export Plug-In . SVG Version: 6.00 Build 0)  -->

<svg
   version="1.1"
   id="Layer_1"
   x="0px"
   y="0px"
   width="231.892px"
   height="167.458px"
   viewBox="0 0 231.892 167.458"
   enable-background="new 0 0 231.892 167.458"
   xml:space="preserve"
   sodipodi:docname="_logo.svg"
   inkscape:version="1.2.2 (732a01da63, 2022-12-09)"
   xmlns:inkscape="http://www.inkscape.org/namespaces/inkscape"
   xmlns:sodipodi="http://sodipodi.sourceforge.net/DTD/sodipodi-0.dtd"
   xmlns="http://www.w3.org/2000/svg"
   xmlns:svg="http://www.w3.org/2000/svg"><defs
   id="defs3119"><clipPath
     clipPathUnits="userSpaceOnUse"
     id="clipPath417"><g
       id="g421"
       transform="matrix(6.7806743,0,0,-6.7806743,-753.7011,780.47391)"><path
         d="M -74.841763,40.056153 H 208.31592 V 199.33235 H -74.841763 Z"
         id="path419"
         style="stroke-width:0.147478" /></g></clipPath><clipPath
     clipPathUnits="userSpaceOnUse"
     id="clipPath411"><g
       id="g415"
       transform="matrix(6.7806743,0,0,-6.7806743,-837.58488,882.35571)"><path
         d="M -74.841763,40.056153 H 208.31592 V 199.33235 H -74.841763 Z"
         id="path413"
         style="stroke-width:0.147478" /></g></clipPath><clipPath
     clipPathUnits="userSpaceOnUse"
     id="clipPath405"><g
       id="g409"
       transform="matrix(6.7806743,0,0,-6.7806743,-906.53898,909.07943)"><path
         d="M -74.841763,40.056153 H 208.31592 V 199.33235 H -74.841763 Z"
         id="path407"
         style="stroke-width:0.147478" /></g></clipPath><clipPath
     clipPathUnits="userSpaceOnUse"
     id="clipPath399"><g
       id="g403"
       transform="matrix(6.7806743,0,0,-6.7806743,-1130.7704,783.2571)"><path
         d="M -74.841763,40.056153 H 208.31592 V 199.33235 H -74.841763 Z"
         id="path401"
         style="stroke-width:0.147478" /></g></clipPath><clipPath
     clipPathUnits="userSpaceOnUse"
     id="clipPath393"><g
       id="g397"><path
         d="M -74.841763,40.056153 H 208.31592 V 199.33235 H -74.841763 Z"
         id="path395"
         style="stroke-width:0.147478" /></g></clipPath><clipPath
     clipPathUnits="userSpaceOnUse"
     id="clipPath387"><g
       id="g391"
       transform="matrix(6.7806743,0,0,-6.7806743,239.19731,765.06523)"><path
         d="M -74.841763,40.056153 H 208.31592 V 199.33235 H -74.841763 Z"
         id="path389"
         style="stroke-width:0.147478" /></g></clipPath><clipPath
     clipPathUnits="userSpaceOnUse"
     id="clipPath381"><g
       id="g385"
       transform="matrix(6.7806743,0,0,-6.7806743,161.14851,807.4456)"><path
         d="M -74.841763,40.056153 H 208.31592 V 199.33235 H -74.841763 Z"
         id="path383"
         style="stroke-width:0.147478" /></g></clipPath><clipPath
     clipPathUnits="userSpaceOnUse"
     id="clipPath375"><g
       id="g379"
       transform="matrix(6.7806743,0,0,-6.7806743,168.44681,809.16823)"><path
         d="M -74.841763,40.056153 H 208.31592 V 199.33235 H -74.841763 Z"
         id="path377"
         style="stroke-width:0.147478" /></g></clipPath><clipPath
     clipPathUnits="userSpaceOnUse"
     id="clipPath369"><g
       id="g373"
       transform="matrix(6.7806743,0,0,-6.7806743,56.328212,825.20541)"><path
         d="M -74.841763,40.056153 H 208.31592 V 199.33235 H -74.841763 Z"
         id="path371"
         style="stroke-width:0.147478" /></g></clipPath><clipPath
     clipPathUnits="userSpaceOnUse"
     id="clipPath363"><g
       id="g367"
       transform="matrix(6.7806743,0,0,-6.7806743,-112.21919,814.22004)"><path
         d="M -74.841763,40.056153 H 208.31592 V 199.33235 H -74.841763 Z"
         id="path365"
         style="stroke-width:0.147478" /></g></clipPath><clipPath
     clipPathUnits="userSpaceOnUse"
     id="clipPath357"><g
       id="g361"
       transform="matrix(6.7806743,0,0,-6.7806743,-262.61319,839.8518)"><path
         d="M -74.841763,40.056153 H 208.31592 V 199.33235 H -74.841763 Z"
         id="path359"
         style="stroke-width:0.147478" /></g></clipPath><clipPath
     clipPathUnits="userSpaceOnUse"
     id="clipPath351"><g
       id="g355"
       transform="matrix(6.7806743,0,0,-6.7806743,-357.72498,782.04865)"><path
         d="M -74.841763,40.056153 H 208.31592 V 199.33235 H -74.841763 Z"
         id="path353"
         style="stroke-width:0.147478" /></g></clipPath><clipPath
     clipPathUnits="userSpaceOnUse"
     id="clipPath2516-8"><path
       d="M 0,1080 H 1920 V 0 H 0 Z"
       id="path2514-8" /></clipPath></defs><sodipodi:namedview
   id="namedview3117"
   pagecolor="#ffffff"
   bordercolor="#000000"
   borderopacity="0.25"
   inkscape:showpageshadow="2"
   inkscape:pageopacity="0.0"
   inkscape:pagecheckerboard="0"
   inkscape:deskcolor="#d1d1d1"
   showgrid="false"
   inkscape:zoom="1.697482"
   inkscape:cx="35.93558"
   inkscape:cy="119.88345"
   inkscape:window-width="1920"
   inkscape:window-height="991"
   inkscape:window-x="-9"
   inkscape:window-y="-9"
   inkscape:window-maximized="1"
   inkscape:current-layer="g3837" />



<g
   id="g3837"
   transform="translate(-0.58910873,0.58910807)"><g
     id="g2512"
     clip-path="url(#clipPath2516-8)"
     transform="matrix(0.39020446,0,0,-0.39020449,-257.36382,282.2273)"><g
       id="g2518"
       transform="translate(1109.998,540.002)"><path
         d="m 0,0 c 0,-82.843 -67.152,-150.002 -149.994,-150.002 -82.843,0 -150.002,67.159 -150.002,150.002 0,82.839 67.159,149.998 150.002,149.998 C -67.152,149.998 0,82.839 0,0"
         style="fill:#005587;fill-opacity:1;fill-rule:nonzero;stroke:none"
         id="path2520" /></g><g
       id="g2522"
       transform="translate(931.8918,596.8535)"><path
         d="m 0,0 c 0,2.962 0.75,5.435 2.234,7.423 1.478,1.966 3.374,3.2 5.674,3.692 l 7.673,1.489 c 2.308,0.158 3.469,1.081 3.469,2.726 0,1.475 -1.323,2.224 -3.947,2.224 h -58.148 c -2.617,0 -3.932,-0.749 -3.932,-2.224 0,-1.645 1.146,-2.568 3.468,-2.726 l 7.652,-1.489 c 2.476,-0.492 4.416,-1.693 5.827,-3.582 1.382,-1.896 2.088,-4.322 2.088,-7.295 l 0.839,-73.43 c 9.401,2.836 18.562,7.051 27.103,12.419 z"
         style="fill:#ffffff;fill-opacity:1;fill-rule:nonzero;stroke:none"
         id="path2524" /></g><g
       id="g2526"
       transform="translate(996.1848,546.8857)"><path
         d="m 0,0 v -37.329 c 0,-11.377 -3.124,-19.861 -9.385,-25.477 -6.277,-5.6 -13.596,-8.396 -22.019,-8.396 -9.231,0 -17.014,3.252 -23.364,9.764 -6.35,6.511 -9.525,15.371 -9.525,26.582 v 6.871 c -9.086,-1.842 -18.534,-2.772 -27.045,-0.338 l 0.095,-8.264 c 0,-15.827 5.071,-27.817 15.206,-35.986 10.142,-8.162 24.694,-12.237 43.641,-12.237 16.977,0 29.956,4.075 38.959,12.237 8.981,8.169 13.464,20.159 13.464,35.986 l 1.236,61.69 C 15.315,15.729 8.163,7.165 0,0"
         style="fill:#ffffff;fill-opacity:1;fill-rule:nonzero;stroke:none"
         id="path2528" /></g><g
       id="g2530"
       transform="translate(1030.0234,613.9346)"><path
         d="m 0,0 c -14.537,0.007 -29.075,0.016 -43.606,0.017 -0.094,-1.286 -0.217,-2.566 -0.367,-3.84 -3.829,-32.658 -25.861,-61.657 -54.159,-78.667 -6.767,-4.068 -13.892,-7.45 -21.213,-10.033 6.812,-0.923 14.127,-0.074 21.213,1.393 5.563,1.151 10.986,2.68 15.912,4.03 14.111,3.885 28.046,9.121 39.746,18.136 3.006,2.317 5.878,4.819 8.635,7.457 8.417,8.054 15.647,17.494 21.428,27.753 5.094,9.04 9.069,18.704 11.769,28.581 0.117,0.429 0.217,0.86 0.33,1.288 0.338,1.292 0.672,2.586 0.966,3.884 -0.218,0 -0.436,0 -0.654,0.001"
         style="fill:#ab192d;fill-opacity:1;fill-rule:nonzero;stroke:none"
         id="path2532" /></g></g></g></svg>
